<?xml version="1.0" encoding="UTF-8" standalone="no"?>
<!DOCTYPE svg PUBLIC "-//W3C//DTD SVG 1.1//EN" "http://www.w3.org/Graphics/SVG/1.1/DTD/svg11.dtd">
<svg width="100%" height="100%" viewBox="0 0 891 209" version="1.1" xmlns="http://www.w3.org/2000/svg" xmlns:xlink="http://www.w3.org/1999/xlink" xml:space="preserve" xmlns:serif="http://www.serif.com/" style="fill-rule:evenodd;clip-rule:evenodd;stroke-linejoin:round;stroke-miterlimit:2;">
    <g id="Main">
        <g id="Logo">
            <g transform="matrix(1,0,0,1,60.8594,88.5254)">
                <path d="M0,-2.288C0,23.897 10.078,47.143 26.65,62.807C24.031,63.044 21.336,63.159 18.556,63.159C-28.335,63.159 -60.859,36.01 -60.859,-1.14C-60.859,-38.29 -28.335,-65.447 18.556,-65.447C20.417,-65.447 22.232,-65.409 23.985,-65.34C8.937,-49.592 0,-27.149 0,-2.288" style="fill:rgb(0,77,69);fill-rule:nonzero;"/>
            </g>
            <g transform="matrix(1,0,0,1,199.435,26.0317)">
                <path d="M0,9.504C2.215,23.782 -8.778,35.536 -27.448,35.536C-55.508,35.536 -60.488,-0.574 -114.59,-2.846C-100.908,-17.224 -82.146,-26.032 -60.443,-26.032C-60.015,-26.032 -59.595,-26.032 -59.167,-26.024C-27.952,-26.024 -2.429,-6.083 0,9.504" style="fill:rgb(14,158,83);fill-rule:nonzero;"/>
            </g>
            <g transform="matrix(1,0,0,1,183.204,166.957)">
                <path d="M0,-53.035C7.235,-51.627 16.513,-46.684 16.513,-31.656C16.513,-10.789 -15.981,4.783 -42.997,5.043L-43.251,5.043C-63.825,5.013 -81.971,-2.739 -95.695,-15.625C-48.082,-19.657 -25.783,-58.078 0,-53.035" style="fill:rgb(10,0,79);fill-rule:nonzero;"/>
            </g>
        </g>
        <g id="Contrast">
            <g transform="matrix(1,0,0,1,264.972,85.6614)">
                <path d="M0,2.863C0,-34.547 25.239,-64.975 66.407,-64.975C80.905,-64.975 93.435,-61.217 101.847,-55.31C103.458,-54.057 103.816,-52.804 103.816,-50.656L103.816,-38.663C103.816,-36.873 102.921,-35.8 101.489,-35.8C100.774,-35.8 99.879,-36.336 99.162,-36.873C90.928,-44.749 78.936,-49.403 66.407,-49.403C35.978,-49.403 19.331,-28.282 19.331,2.147C19.331,33.65 38.483,53.16 65.153,53.16C78.758,53.16 89.497,49.759 99.52,41.526C100.415,40.989 100.952,40.631 101.669,40.631C102.921,40.631 103.816,41.704 103.816,43.136L103.816,52.623C103.816,54.771 103.279,55.487 101.847,56.561C91.466,64.257 79.831,67.838 61.753,67.838C25.596,67.838 0,41.167 0,2.863" style="fill:rgb(10,0,79);fill-rule:nonzero;"/>
            </g>
            <g transform="matrix(1,0,0,1,449.987,107.856)">
                <path d="M0,-0.359C0,-19.332 -7.697,-33.831 -25.775,-33.831C-44.033,-33.831 -51.55,-18.974 -51.55,-0.359C-51.55,18.436 -43.853,33.829 -25.775,33.829C-7.518,33.829 0,18.257 0,-0.359M17.362,-0.717C17.362,22.373 3.759,45.643 -25.775,45.643C-55.13,45.643 -69.092,22.373 -69.092,-0.717C-69.092,-23.628 -55.13,-46.002 -25.775,-46.002C3.759,-46.002 17.362,-23.628 17.362,-0.717" style="fill:rgb(10,0,79);fill-rule:nonzero;"/>
            </g>
            <g transform="matrix(1,0,0,1,493.338,148.129)">
                <path d="M0,-83.232C0.895,-83.232 1.432,-82.337 1.611,-81.621C2.149,-77.862 2.685,-70.523 2.685,-64.796C7.518,-77.325 20.585,-86.275 37.052,-86.275C52.445,-86.275 64.796,-76.788 64.796,-58.352L64.796,1.432C64.796,2.148 63.901,3.043 63.184,3.043L50.119,3.043C49.224,3.043 48.507,2.148 48.507,1.432L48.507,-54.593C48.507,-67.659 41.706,-73.208 30.966,-73.208C17.542,-73.208 4.833,-63.364 4.833,-46.001L4.833,1.432C4.833,2.148 3.938,3.043 3.223,3.043L-9.844,3.043C-10.739,3.043 -11.456,2.148 -11.456,1.432L-11.456,-67.301C-11.456,-76.609 -12.708,-80.368 -12.708,-81.621C-12.708,-82.337 -11.992,-83.232 -11.277,-83.232L0,-83.232Z" style="fill:rgb(10,0,79);fill-rule:nonzero;"/>
            </g>
            <g transform="matrix(1,0,0,1,592.447,152.068)">
                <path d="M0,-107.576C0.537,-108.65 1.075,-109.007 2.149,-109.007C3.58,-109.007 4.296,-108.292 4.296,-106.86L4.296,-101.49C4.296,-97.015 3.759,-91.287 3.044,-86.634C7.876,-86.991 17.183,-87.171 23.806,-87.171C24.522,-87.171 25.06,-86.634 25.06,-85.559L25.06,-76.252C25.06,-75.357 24.701,-74.82 23.806,-74.82C17.542,-74.82 9.308,-74.82 3.044,-75.357C3.58,-70.166 3.58,-64.975 3.58,-55.489L3.58,-27.029C3.58,-15.573 9.129,-11.993 16.647,-11.993C18.973,-11.993 21.301,-12.351 22.911,-13.246C24.165,-13.783 25.06,-13.246 25.06,-12.173L25.06,-1.433C25.06,-0.538 24.344,0.178 23.449,0.357C20.227,1.073 17.005,1.431 14.319,1.431C-0.536,1.431 -12.708,-7.519 -12.708,-26.671L-12.708,-55.489C-12.708,-64.975 -12.35,-70.345 -11.813,-75.357C-15.393,-74.82 -20.226,-74.82 -22.731,-74.82C-23.805,-74.82 -24.521,-76.073 -24.521,-78.221C-24.521,-80.19 -24.343,-81.264 -23.269,-81.801C-14.14,-87.529 -6.264,-96.478 0,-107.576" style="fill:rgb(10,0,79);fill-rule:nonzero;"/>
            </g>
            <g transform="matrix(1,0,0,1,668.209,136.137)">
                <path d="M0,-59.247C-12.172,-59.247 -18.615,-47.075 -18.615,-33.472L-18.615,13.425C-18.615,14.14 -19.51,15.035 -20.226,15.035L-33.293,15.035C-34.188,15.035 -34.903,14.14 -34.903,13.425L-34.903,-55.309C-34.903,-64.617 -36.157,-68.376 -36.157,-69.628C-36.157,-70.344 -35.441,-71.239 -34.724,-71.239L-23.448,-71.239C-22.552,-71.239 -22.016,-70.344 -21.837,-69.628C-21.121,-64.975 -20.763,-58.352 -20.763,-51.908C-16.467,-64.975 -6.98,-74.282 6.086,-74.282C17.362,-74.282 22.195,-68.554 22.195,-62.111C22.195,-56.92 19.511,-53.161 15.036,-53.161C8.95,-53.161 9.487,-59.247 0,-59.247" style="fill:rgb(10,0,79);fill-rule:nonzero;"/>
            </g>
            <g transform="matrix(1,0,0,1,705.147,87.4507)">
                <path d="M0,40.452C0,49.223 6.802,53.876 14.677,53.876C28.46,53.876 37.768,42.779 37.768,28.818L37.768,17.362C10.203,19.331 0,28.996 0,40.452M53.698,1.074C53.698,11.813 52.803,28.46 52.803,38.304C52.803,50.834 55.309,57.635 57.994,59.604C58.71,60.32 58.889,60.857 58.889,61.752C58.889,62.826 57.815,63.721 56.92,63.721L49.044,63.721C46.36,63.721 45.106,62.647 44.211,60.499C42.242,57.098 40.811,51.371 40.632,45.643C35.619,58.172 25.417,66.048 10.203,66.048C-6.085,66.048 -15.931,56.383 -15.931,43.316C-15.931,25.417 1.432,10.739 37.768,8.591L37.768,2.684C37.768,-7.16 33.293,-13.246 19.69,-13.246C12.172,-13.246 6.98,-11.098 3.759,-7.16C1.253,-4.117 -0.358,-1.611 -4.295,-1.611C-8.234,-1.611 -11.277,-3.938 -11.277,-8.413C-11.277,-14.499 -2.326,-25.596 20.942,-25.596C45.465,-25.596 53.698,-14.141 53.698,1.074" style="fill:rgb(10,0,79);fill-rule:nonzero;"/>
            </g>
            <g transform="matrix(1,0,0,1,775.002,69.0142)">
                <path d="M0,77.325C-1.074,76.43 -1.431,75.356 -1.431,74.282L-1.431,66.048C-1.431,64.616 -1.074,63.721 -0.179,63.721C0.895,63.721 1.611,64.079 2.326,64.796C7.875,69.27 16.288,72.492 25.059,72.492C36.514,72.492 42.601,66.943 42.601,59.963C42.601,50.655 34.188,48.507 21.837,44.211C10.024,40.273 -1.253,34.188 -1.253,18.257C-1.253,4.833 10.739,-7.16 30.608,-7.16C40.99,-7.16 48.865,-4.117 53.161,-0.537C55.488,1.432 56.204,3.043 56.204,5.549C56.204,10.024 53.161,13.066 50.119,13.066C47.97,13.066 46.717,12.708 45.106,11.277C40.273,7.338 35.262,5.37 29.713,5.37C19.331,5.37 14.498,11.277 14.498,17.72C14.498,26.849 22.016,29.176 31.503,32.398C48.865,38.304 58.352,44.032 58.352,58.888C58.352,74.103 44.927,84.485 25.238,84.485C13.962,84.485 5.549,81.263 0,77.325" style="fill:rgb(10,0,79);fill-rule:nonzero;"/>
            </g>
            <g transform="matrix(1,0,0,1,865.74,152.068)">
                <path d="M0,-107.576C0.537,-108.65 1.075,-109.007 2.149,-109.007C3.58,-109.007 4.296,-108.292 4.296,-106.86L4.296,-101.49C4.296,-97.015 3.759,-91.287 3.044,-86.634C7.876,-86.991 17.183,-87.171 23.806,-87.171C24.522,-87.171 25.06,-86.634 25.06,-85.559L25.06,-76.252C25.06,-75.357 24.701,-74.82 23.806,-74.82C17.542,-74.82 9.308,-74.82 3.044,-75.357C3.58,-70.166 3.58,-64.975 3.58,-55.489L3.58,-27.029C3.58,-15.573 9.129,-11.993 16.647,-11.993C18.973,-11.993 21.301,-12.351 22.911,-13.246C24.165,-13.783 25.06,-13.246 25.06,-12.173L25.06,-1.433C25.06,-0.538 24.344,0.178 23.449,0.357C20.227,1.073 17.005,1.431 14.319,1.431C-0.536,1.431 -12.708,-7.519 -12.708,-26.671L-12.708,-55.489C-12.708,-64.975 -12.35,-70.345 -11.813,-75.357C-15.393,-74.82 -20.226,-74.82 -22.731,-74.82C-23.805,-74.82 -24.521,-76.073 -24.521,-78.221C-24.521,-80.19 -24.343,-81.264 -23.269,-81.801C-14.14,-87.529 -6.264,-96.478 0,-107.576" style="fill:rgb(10,0,79);fill-rule:nonzero;"/>
            </g>
        </g>
        <g id="Security">
            <g transform="matrix(1,0,0,1,288.989,180.505)">
                <path d="M0,18.525C0,14.266 -3.284,13.188 -8.775,10.93C-13.65,9.031 -17.96,6.311 -17.96,0.462C-17.96,-4.773 -13.753,-9.801 -5.901,-9.801C-2.309,-9.801 0.616,-8.98 3.13,-7.287C3.592,-6.927 3.644,-6.62 3.644,-6.004L3.644,-2.515C3.644,-2.053 3.387,-1.796 3.028,-1.796C2.771,-1.796 2.566,-1.899 2.36,-2.104C-0.103,-4.516 -2.977,-5.645 -6.261,-5.645C-10.468,-5.645 -12.777,-3.079 -12.777,0C-12.777,3.951 -9.135,5.337 -5.029,6.979C1.796,9.545 5.183,12.418 5.183,17.96C5.183,24.478 -0.154,28.326 -7.235,28.326C-12.213,28.326 -14.728,27.351 -17.909,25.093C-18.217,24.785 -18.422,24.478 -18.422,23.913L-18.422,21.09C-18.422,20.578 -18.217,20.269 -17.909,20.269C-17.652,20.269 -17.447,20.423 -17.242,20.629C-14.265,23.041 -11.033,24.323 -7.44,24.323C-2.823,24.323 0,21.911 0,18.525" style="fill:rgb(157,165,179);fill-rule:nonzero;"/>
            </g>
            <g transform="matrix(1,0,0,1,331.661,175.938)">
                <path d="M0,28.12C0.205,28.12 0.359,28.274 0.359,28.582L-0.051,31.764C-0.102,32.02 -0.154,32.174 -0.411,32.174L-22.733,32.174C-22.989,32.174 -23.194,31.918 -23.194,31.713L-23.194,-3.541C-23.194,-3.798 -22.989,-4.054 -22.733,-4.054L-1.18,-4.054C-0.923,-4.054 -0.821,-3.901 -0.77,-3.592L-0.411,-0.411C-0.411,-0.154 -0.513,-0.001 -0.77,-0.001C-3.849,-0.001 -8.98,-0.103 -11.956,-0.103C-14.625,-0.103 -16.421,-0.154 -18.165,-0.257C-18.063,1.744 -18.012,3.797 -18.012,5.541C-18.012,7.44 -18.063,9.441 -18.165,11.443C-16.575,11.289 -14.779,11.238 -12.214,11.238C-9.596,11.238 -7.698,11.186 -6.466,11.186C-6.26,11.186 -6.107,11.34 -6.107,11.648L-6.107,14.727C-6.107,14.983 -6.209,15.137 -6.466,15.137C-7.749,15.137 -9.698,15.086 -12.316,15.086C-14.522,15.086 -16.472,14.983 -18.165,14.83C-18.063,17.087 -18.012,19.243 -18.012,21.346C-18.012,23.656 -18.063,26.067 -18.165,28.377C-15.754,28.223 -13.752,28.223 -9.955,28.223C-6.671,28.223 -3.079,28.12 0,28.12" style="fill:rgb(157,165,179);fill-rule:nonzero;"/>
            </g>
            <g transform="matrix(1,0,0,1,341.338,189.331)">
                <path d="M0,0.821C0,-9.904 7.235,-18.627 19.037,-18.627C23.195,-18.627 26.786,-17.55 29.198,-15.857C29.66,-15.497 29.763,-15.138 29.763,-14.522L29.763,-11.084C29.763,-10.571 29.507,-10.263 29.096,-10.263C28.89,-10.263 28.633,-10.417 28.428,-10.571C26.068,-12.829 22.63,-14.163 19.037,-14.163C10.314,-14.163 5.542,-8.108 5.542,0.616C5.542,9.647 11.033,15.241 18.679,15.241C22.579,15.241 25.658,14.266 28.531,11.905C28.788,11.751 28.942,11.648 29.147,11.648C29.507,11.648 29.763,11.957 29.763,12.367L29.763,15.087C29.763,15.702 29.609,15.908 29.198,16.216C26.222,18.422 22.886,19.448 17.704,19.448C7.338,19.448 0,11.802 0,0.821" style="fill:rgb(157,165,179);fill-rule:nonzero;"/>
            </g>
            <g transform="matrix(1,0,0,1,388.802,208.779)">
                <path d="M0,-36.895C0.205,-36.895 0.462,-36.638 0.462,-36.382L0.462,-13.7C0.462,-7.902 4.105,-4.566 10.314,-4.566C16.626,-4.566 20.27,-7.491 20.27,-13.444L20.27,-36.382C20.27,-36.638 20.475,-36.895 20.731,-36.895L24.888,-36.895C25.093,-36.895 25.349,-36.638 25.349,-36.382L25.349,-12.777C25.349,-4.977 19.295,0 10.314,0C1.335,0 -4.772,-5.028 -4.772,-12.931L-4.772,-36.382C-4.772,-36.638 -4.567,-36.895 -4.31,-36.895L0,-36.895Z" style="fill:rgb(157,165,179);fill-rule:nonzero;"/>
            </g>
            <g transform="matrix(1,0,0,1,434.984,204.366)">
                <path d="M0,-28.736C0.102,-26.838 0.153,-22.989 0.153,-20.936C0.153,-18.832 0.102,-16.729 0,-14.676C0.923,-14.727 2.36,-14.83 3.797,-14.83C9.904,-14.83 12.623,-17.652 12.623,-22.219C12.623,-26.119 10.263,-28.582 5.285,-28.582C3.437,-28.582 1.744,-28.634 0,-28.736M-0.052,-11.238C0.102,-9.031 0.153,-6.722 0.153,-4.31L0.153,3.285C0.153,3.49 -0.103,3.746 -0.308,3.746L-4.568,3.746C-4.824,3.746 -5.029,3.49 -5.029,3.285L-5.029,-31.815C-5.029,-32.174 -4.773,-32.482 -4.568,-32.482L5.901,-32.482C14.316,-32.482 18.063,-27.967 18.063,-22.373C18.063,-16.78 13.034,-12.777 7.748,-12.367C10.365,-11.802 14.162,-8.108 17.857,-3.899C20.73,-0.718 22.783,1.643 23.861,2.207C24.118,2.309 24.169,2.566 24.169,2.925C24.169,3.438 23.912,3.746 23.502,3.746L18.781,3.746C18.114,3.746 17.6,3.438 16.472,1.899C11.905,-3.387 6.516,-11.135 2.874,-11.135C2.309,-11.135 0.872,-11.187 -0.052,-11.238" style="fill:rgb(157,165,179);fill-rule:nonzero;"/>
            </g>
            <g transform="matrix(1,0,0,1,476.326,172.346)">
                <path d="M0,35.305C0,35.51 -0.256,35.767 -0.462,35.767L-4.721,35.767C-4.977,35.767 -5.183,35.51 -5.183,35.305L-5.183,0.051C-5.183,-0.205 -4.977,-0.462 -4.721,-0.462L-0.462,-0.462C-0.256,-0.462 0,-0.205 0,0.051L0,35.305Z" style="fill:rgb(157,165,179);fill-rule:nonzero;"/>
            </g>
            <g transform="matrix(1,0,0,1,520.026,207.702)">
                <path d="M0,-35.407L0,-31.918C0,-31.712 -0.102,-31.559 -0.359,-31.559C-2.258,-31.559 -4.516,-31.661 -6.414,-31.661C-8.672,-31.661 -11.033,-31.712 -13.291,-31.815C-13.188,-29.917 -13.137,-28.018 -13.137,-26.119L-13.137,-0.051C-13.137,0.155 -13.393,0.411 -13.598,0.411L-17.858,0.411C-18.114,0.411 -18.319,0.155 -18.319,-0.051L-18.319,-26.222C-18.319,-28.12 -18.268,-30.019 -18.165,-31.815C-20.218,-31.712 -22.322,-31.661 -24.375,-31.661C-26.735,-31.661 -28.839,-31.559 -31.2,-31.559C-31.456,-31.559 -31.61,-31.712 -31.559,-31.969L-31.098,-35.355C-31.046,-35.664 -30.943,-35.818 -30.738,-35.818L-0.359,-35.818C-0.102,-35.818 0,-35.664 0,-35.407" style="fill:rgb(157,165,179);fill-rule:nonzero;"/>
            </g>
            <g transform="matrix(1,0,0,1,547.323,172.346)">
                <path d="M0,35.305C0,35.51 -0.257,35.767 -0.462,35.767L-4.721,35.767C-4.977,35.767 -5.184,35.51 -5.184,35.305L-5.184,19.961L-19.859,0.359C-20.167,-0.051 -20.167,-0.462 -19.603,-0.462L-14.83,-0.462C-14.368,-0.462 -14.112,-0.205 -13.958,0.102L-5.542,11.238C-4.363,12.932 -3.284,14.574 -2.463,16.421C-1.437,14.471 -0.411,12.828 0.718,11.289L9.185,0.102C9.493,-0.359 9.853,-0.462 10.263,-0.462L14.574,-0.462C15.138,-0.462 15.138,-0.051 14.83,0.359L0,19.961L0,35.305Z" style="fill:rgb(157,165,179);fill-rule:nonzero;"/>
            </g>
        </g>
    </g>
</svg>
